<?xml version="1.0" standalone="no"?>
<!DOCTYPE svg PUBLIC "-//W3C//DTD SVG 20010904//EN"
 "http://www.w3.org/TR/2001/REC-SVG-20010904/DTD/svg10.dtd">
<svg version="1.0" xmlns="http://www.w3.org/2000/svg"
 width="98.000000pt" height="98.000000pt" viewBox="0 0 98.000000 98.000000"
 preserveAspectRatio="xMidYMid meet">
<metadata>
Created by potrace 1.14, written by Peter Selinger 2001-2017
</metadata>
<g transform="translate(0.000000,98.000000) scale(0.100000,-0.100000)"
fill="#000000" stroke="none">
<path d="M415 951 c-48 -22 -69 -44 -90 -94 -33 -79 -6 -173 64 -221 l39 -27
-27 -27 -26 -27 -23 32 c-12 18 -39 44 -59 57 -49 34 -152 33 -200 -2 -51 -36
-78 -88 -78 -152 0 -135 134 -223 256 -169 43 20 89 64 89 87 0 19 13 14 40
-14 24 -26 24 -26 5 -40 -71 -50 -99 -104 -92 -182 10 -131 157 -205 272 -137
61 35 89 85 89 154 0 68 -22 112 -73 149 l-38 28 28 32 c16 18 29 26 29 18 0
-23 80 -95 116 -105 71 -20 147 4 197 63 71 83 42 228 -56 275 -50 24 -113 27
-160 7 -33 -13 -97 -78 -97 -97 0 -6 -13 3 -30 21 -34 36 -35 40 -17 40 24 1
66 46 88 94 67 153 -93 307 -246 237z m159 -29 c48 -28 69 -66 74 -129 3 -48
0 -64 -20 -93 -25 -37 -108 -87 -118 -70 -9 14 -4 120 7 131 5 5 29 10 53 12
60 3 67 21 10 25 -25 1 -55 8 -67 14 -17 9 -29 9 -45 0 -13 -6 -41 -13 -63
-14 -51 -4 -48 -23 4 -23 57 0 71 -17 71 -86 0 -68 -8 -72 -71 -37 -60 33 -89
110 -68 177 32 99 144 144 233 93z m-74 -138 c0 -8 -5 -12 -10 -9 -6 4 -8 11
-5 16 9 14 15 11 15 -7z m-230 -157 c43 -23 97 -98 84 -118 -8 -14 -120 -11
-132 4 -6 7 -12 35 -14 62 -4 60 -23 67 -23 8 -1 -23 -7 -53 -14 -67 -12 -21
-11 -30 3 -61 9 -19 14 -40 11 -46 -10 -15 4 -61 15 -54 6 3 10 26 10 51 0 25
6 51 13 58 6 6 38 12 70 12 49 1 57 -2 57 -18 0 -48 -61 -114 -116 -124 -79
-15 -148 17 -179 82 -31 67 -17 141 37 191 51 48 113 55 178 20z m603 -2 c15
-10 37 -32 50 -49 29 -41 30 -127 2 -174 -24 -40 -87 -72 -142 -72 -63 0 -133
57 -148 121 -6 25 -6 25 53 25 77 -1 92 -14 92 -78 0 -30 4 -47 10 -43 6 3 10
28 10 56 0 27 4 49 9 49 17 0 21 33 6 56 -8 13 -15 41 -15 64 0 51 -20 53 -21
3 -1 -21 -1 -42 0 -46 4 -24 -31 -38 -89 -36 -60 2 -61 3 -55 27 9 38 36 72
74 96 44 28 123 29 164 1z m-307 -56 c46 -43 49 -105 7 -153 -65 -75 -188 -25
-188 75 0 35 6 46 39 76 34 31 43 35 78 30 22 -3 51 -16 64 -28z m-361 -79 c3
-5 -1 -10 -10 -10 -9 0 -13 5 -10 10 3 6 8 10 10 10 2 0 7 -4 10 -10z m595 0
c0 -5 -4 -10 -10 -10 -5 0 -10 5 -10 10 0 6 5 10 10 10 6 0 10 -4 10 -10z
m-320 -204 c0 -74 -5 -80 -69 -81 -62 -1 -68 -25 -6 -25 25 0 56 -7 69 -15 20
-13 25 -13 42 0 10 8 40 15 67 15 26 0 47 5 47 10 0 9 -9 11 -72 14 -40 2 -51
19 -53 87 l-2 61 29 -6 c73 -15 123 -88 116 -171 -7 -87 -64 -139 -153 -139
-98 0 -160 63 -158 161 2 63 35 116 87 139 53 23 56 20 56 -50z m25 -96 c3 -5
-1 -10 -9 -10 -9 0 -16 5 -16 10 0 6 4 10 9 10 6 0 13 -4 16 -10z"/>
<path d="M437 548 c-78 -78 29 -192 113 -122 22 19 30 34 30 58 0 40 -39 86
-72 86 -22 0 -21 -2 8 -25 45 -35 49 -62 15 -96 -32 -32 -62 -30 -86 4 -21 30
-19 53 6 76 12 11 19 25 17 32 -3 9 -13 5 -31 -13z"/>
</g>
</svg>
